HIERARCHY
ROOT Hips
{
	OFFSET 0.00000 0.00000 0.00000
	CHANNELS 6 Xposition Yposition Zposition Zrotation Yrotation Xrotation 
	JOINT LHipJoint
	{
		OFFSET 0 0 0
		CHANNELS 3 Zrotation Yrotation Xrotation
		JOINT LeftHip
		{
			OFFSET 1.58895 -1.83665 0.71753
			CHANNELS 3 Zrotation Yrotation Xrotation
			JOINT LeftKnee
			{
				OFFSET 2.50528 -6.88321 0.00000
				CHANNELS 3 Zrotation Yrotation Xrotation
				JOINT LeftAnkle
				{
					OFFSET 2.63244 -7.23257 0.00000
					CHANNELS 3 Zrotation Yrotation Xrotation
					JOINT LeftToe
					{
						OFFSET 0.23691 -0.65090 1.72750
						CHANNELS 3 Zrotation Yrotation Xrotation
						End Site
						{
							OFFSET 0.00000 -0.00000 0.92561
						}
					}
				}
			}
		}
	}
	JOINT RHipJoint
	{
		OFFSET 0 0 0
		CHANNELS 3 Zrotation Yrotation Xrotation
		JOINT RightHip
		{
			OFFSET -1.51435 -1.83665 0.71753
			CHANNELS 3 Zrotation Yrotation Xrotation
			JOINT RightKnee
			{
				OFFSET -2.54551 -6.99375 0.00000
				CHANNELS 3 Zrotation Yrotation Xrotation
				JOINT RightAnkle
				{
					OFFSET -2.66027 -7.30903 0.00000
					CHANNELS 3 Zrotation Yrotation Xrotation
					JOINT RightToe
					{
						OFFSET -0.22981 -0.63138 2.03959
						CHANNELS 3 Zrotation Yrotation Xrotation
						End Site
						{
							OFFSET -0.00000 -0.00000 1.07060
						}
					}
				}
			}
		}
	}
	JOINT lowerback
	{
		OFFSET 0 0 0
		CHANNELS 3 Zrotation Yrotation Xrotation
		JOINT Chest
		{
			OFFSET -0.02651 1.86275 -0.11152
			CHANNELS 3 Zrotation Yrotation Xrotation
			JOINT Chest2
			{
				OFFSET 0.01019 1.86224 0.04087
				CHANNELS 3 Zrotation Yrotation Xrotation
				JOINT lowerneck
				{
					OFFSET 0 0 0
					CHANNELS 3 Zrotation Yrotation Xrotation
					JOINT Neck
					{
						OFFSET -0.01926 1.80512 0.08867
						CHANNELS 3 Zrotation Yrotation Xrotation
						JOINT Head
						{
							OFFSET 0.05516 1.76451 -0.38475
							CHANNELS 3 Zrotation Yrotation Xrotation
							End Site
							{
								OFFSET 0.01592 1.82587 -0.14001
							}
						}
					}
				}
				JOINT LeftCollar
				{
					OFFSET 0 0 0
					CHANNELS 3 Zrotation Yrotation Xrotation
					JOINT LeftShoulder
					{
						OFFSET 3.47116 1.51376 0.14491
CHANNELS 3 Zrotation Xrotation Yrotation
						JOINT LeftElbow
						{
OFFSET 0 -4.780950 0.000000
CHANNELS 3 Zrotation Xrotation Yrotation
							JOINT LeftWrist
							{
OFFSET 0 -3.586150 -0.000000
CHANNELS 3 Zrotation Xrotation Yrotation
								JOINT lhand
								{
									OFFSET 0 0 0
CHANNELS 3 Zrotation Xrotation Yrotation
									JOINT LFingers
									{
OFFSET 0 -0.659810 0.000000
CHANNELS 3 Zrotation Xrotation Yrotation
										End Site
										{
OFFSET 0 -0.531960 0.000000
										}
									}
								}
								JOINT LThumb
								{
OFFSET 0 0.000000 0.000000
CHANNELS 3 Zrotation Xrotation Yrotation
									End Site
									{
OFFSET 0 -0.540080 0.540080
									}
								}
							}
						}
					}
				}
				JOINT RightCollar
				{
					OFFSET 0 0 0
					CHANNELS 3 Zrotation Yrotation Xrotation
					JOINT RightShoulder
					{
						OFFSET -3.31725 1.61216 0.35156
CHANNELS 3 Zrotation Xrotation Yrotation
						JOINT RightElbow
						{
OFFSET 0 -4.489130 0.000000
CHANNELS 3 Zrotation Xrotation Yrotation
							JOINT RightWrist
							{
OFFSET 0 -3.705100 0.000000
CHANNELS 3 Zrotation Xrotation Yrotation
								JOINT rhand
								{
									OFFSET 0 0 0
CHANNELS 3 Zrotation Xrotation Yrotation
									JOINT RFingers
									{
OFFSET 0 -0.449140 0.000000
CHANNELS 3 Zrotation Xrotation Yrotation
										End Site
										{
OFFSET 0 -0.362110 0.000000
										}
									}
								}
								JOINT RThumb
								{
OFFSET 0 0.000000 0.000000
CHANNELS 3 Zrotation Xrotation Yrotation
									End Site
									{
OFFSET 0 -0.367630 0.367630
									}
								}
							}
						}
					}
				}
			}
		}
	}
}
MOTION
Frames: 5
Frame Time: 0.008333333333333333
-0.645300 18.665800 6.198600 -4.943300 -1.395100 2.281400 0.000000 0.000000 0.000000 -9.464300 -8.174700 -1.918600 1.502100 7.741200 21.930700 1.891600 4.347500 -27.834400 8.369000 -16.384000 -53.881000 0.000000 0.000000 0.000000 0.000000 0.000000 0.000000 0.000000 0.000000 0.000000 -0.000000 -0.000000 0.000000 -0.000000 -0.000000 0.000000 3.580500 0.299600 -0.049100 1.146600 0.475100 -2.555500 -0.837900 0.171800 -2.579600 -0.514100 -1.235300 -13.055800 1.465000 -2.161400 31.209800 0.335800 -0.838500 12.521100 -0.000000 -0.000000 0.000000 -0.796800 13.027500 -26.934100 21.218100 -32.082100 6.165400 7.853800 4.156800 29.737900 0.000000 0.000000 0.000000 -7.125000 0.000000 0.000000 -13.344600 0.709100 -13.552700 -0.000000 -0.000000 0.000000 -0.125700 16.095900 26.227900 -23.494100 -34.624700 -7.417100 -7.490100 25.462000 28.217700 0.000000 0.000000 0.000000 7.125000 0.000000 -0.000000 25.059800 56.587900 -7.442900
-0.644322 18.665364 6.200367 -4.941805 -1.434527 2.265654 0.000000 0.000000 0.000000 -9.483151 -8.176683 -1.874176 1.502383 7.741903 21.932862 1.900753 4.383857 -27.913721 8.378028 -16.390350 -53.913152 0.000000 0.000000 0.000000 0.000000 0.000000 0.000000 0.000000 0.000000 0.000000 0.000000 0.000000 0.000000 0.000000 0.000000 0.000000 3.593859 0.318414 -0.055444 1.140378 0.500020 -2.558781 -0.852243 0.183876 -2.578206 -0.522648 -1.223964 -13.019861 1.503150 -2.154608 31.209031 0.353146 -0.831676 12.513704 0.000000 0.000000 0.000000 -0.798254 13.068261 -27.079635 21.352639 -32.237581 6.236966 7.565474 4.479369 28.765644 0.000000 0.000000 0.000000 -7.125000 0.000000 0.000000 -13.472851 1.687680 -13.450898 0.000000 0.000000 0.000000 -0.120919 16.148660 26.236125 -23.530179 -34.663493 -7.437683 -7.545960 25.466918 28.221701 0.000000 0.000000 0.000000 7.125000 0.000000 0.000000 25.007451 56.602881 -7.435211
-0.644372 18.665194 6.201000 -4.968688 -1.445019 2.305684 0.000000 0.000000 0.000000 -9.439537 -8.137795 -1.941366 1.502794 7.742989 21.936161 1.892385 4.343692 -27.837972 8.376471 -16.389316 -53.907695 0.000000 0.000000 0.000000 0.000000 0.000000 0.000000 0.000000 0.000000 0.000000 0.000000 0.000000 0.000000 0.000000 0.000000 0.000000 3.598020 0.317191 -0.092652 1.164508 0.497662 -2.575974 -0.829554 0.182759 -2.575284 -0.502498 -1.217955 -13.018238 1.435603 -2.129508 31.210525 0.327488 -0.826977 12.512437 0.000000 0.000000 0.000000 -0.813140 13.117626 -27.132533 21.431673 -32.328764 6.279215 8.244339 4.025868 29.080863 0.000000 0.000000 0.000000 -7.125000 0.000000 0.000000 -13.092681 1.303333 -13.141649 0.000000 0.000000 0.000000 -0.155120 16.163441 26.292624 -23.534003 -34.667531 -7.439776 -7.619667 25.480586 28.297947 0.000000 0.000000 0.000000 7.125000 0.000000 0.000000 24.989350 56.686465 -7.481008
-0.644708 18.664741 6.201926 -4.937726 -1.442585 2.292707 0.000000 0.000000 0.000000 -9.471495 -8.125577 -1.923508 1.502842 7.742983 21.936034 1.897147 4.310936 -27.853831 8.377870 -16.390303 -53.912621 0.000000 0.000000 0.000000 0.000000 0.000000 0.000000 0.000000 0.000000 0.000000 0.000000 0.000000 0.000000 0.000000 0.000000 0.000000 3.572140 0.327593 -0.101701 1.144379 0.509979 -2.565022 -0.835925 0.189573 -2.558349 -0.526428 -1.225748 -12.996074 1.487523 -2.150058 31.171499 0.348587 -0.832538 12.493010 0.000000 0.000000 0.000000 -0.779013 13.101303 -27.207526 21.427081 -32.323421 6.276761 8.246775 4.000355 29.076145 0.000000 0.000000 0.000000 -7.125000 0.000000 0.000000 -13.090945 1.307752 -13.138875 0.000000 0.000000 0.000000 -0.158492 16.142275 26.358829 -23.516904 -34.649195 -7.430114 -7.621688 25.427951 28.375546 0.000000 0.000000 0.000000 7.125000 0.000000 0.000000 25.043362 56.756629 -7.542042
-0.643944 18.664189 6.203245 -4.922569 -1.454804 2.228608 0.000000 0.000000 0.000000 -9.505007 -8.106322 -1.853827 1.503078 7.743545 21.937924 1.898019 4.342001 -27.874910 8.397184 -16.403701 -53.980882 0.000000 0.000000 0.000000 0.000000 0.000000 0.000000 0.000000 0.000000 0.000000 0.000000 0.000000 0.000000 0.000000 0.000000 0.000000 3.565754 0.338336 -0.076925 1.128795 0.524182 -2.534419 -0.848776 0.197191 -2.539985 -0.536420 -1.231412 -13.017801 1.568899 -2.182902 31.207727 0.376648 -0.837301 12.514377 0.000000 0.000000 0.000000 -0.760576 13.048698 -27.243656 21.381295 -32.270689 6.252257 8.146628 4.024209 29.080739 0.000000 0.000000 0.000000 -7.125000 0.000000 0.000000 -13.148947 1.314880 -13.198640 0.000000 0.000000 0.000000 -0.154069 16.123539 26.382814 -23.513890 -34.645979 -7.428434 -7.533351 25.322470 28.402084 0.000000 0.000000 0.000000 7.125000 0.000000 0.000000 25.149872 56.762447 -7.580581
